<?xml version="1.0" encoding="utf-8"?>
<!-- Generator: Adobe Illustrator 15.0.2, SVG Export Plug-In . SVG Version: 6.00 Build 0)  -->
<!DOCTYPE svg PUBLIC "-//W3C//DTD SVG 1.0//EN" "http://www.w3.org/TR/2001/REC-SVG-20010904/DTD/svg10.dtd">
<svg version="1.0" id="Layer_1" xmlns="http://www.w3.org/2000/svg" xmlns:xlink="http://www.w3.org/1999/xlink" x="0px" y="0px"
	 width="32px" height="32px" viewBox="0 0 32 32" style="enable-background:new 0 0 32 32;" xml:space="preserve">
<g transform="scale(1.0,1.0)">
<path style="fill-rule:evenodd;clip-rule:evenodd;fill:#98742E;" d="M23,7V6h-1v1v1h1V7z M27,9h-1v1h-1h-1V9h1V8h-1v1h-1h-1v1h-1v1
	h-1h-1v-1h1V9h1V8V7h-1V6h-1v1h-1v1h-1V7V6h1V5h1V4V3h-1V2h1v1h1v1h1v1h2v1h1v1h2v1h1V9h1v1v1v1h-1v-1h-1v-1h1V9z M29,12v-1h1v1H29z
	 M25,14h1h1v-1h1v1h-1v1h-2v1h-1v1h-1h-2v-1v-1v-1h1v2h1v-1h1h1V14z M21,19h-2v-1h1v-1h1v1h1v1H21z M10,12v2h1h1v1h1h1v1h-1h-1v-1
	h-1v1h-1v-1H9v1H8H6v-1H5v-1h1v1h1h1v-1h1v-2H8v-1H7v-1H6V9h1V8H5v1H4v1H3V9h1V8h1V7h2h1V6h1V5V4h1h1V3V2h2V1h1v1h-1v1h-1v2h1V4h1V3
	h1v1h1v1v1h-1h-1V5h-1v1h1v1h1v1h-1v1h-2V8h1V7h-1v1h-1v1v1h-1v1H9v1H10v-1h1v-1h1v1h1v-1h1h1V9V8h2v1h1v2h-1v-1h-1h-1v1h-1v1h1v-1
	h1v1h-1v1v1h1v-1h1v2v1h-1v2h-1h-1v1v1h2h1v-1h2v1v1h-1v1h-3v-1h-1v-1h-3v-1h1v-1h-1v-1h1h1v1h1v-1h1v-2v-1h-1v-1h-1v-1h-1v-1h-1v1
	H10z M11,19h-1H9v-1H8v-1h1h1v1h1V19z M11,6h-1H9v1v1H8v1v1h1h1V9V8V7h1V6h1V5h-1V6z M15,2V1h2v1v1h-1h-1V2z M6,12v1H5H3v-1H2v-1h1
	h1v1H6z M8,12v1H7v-1H8z M20,13v-1h2h1v-1h1v1h1v1h-1h-1v1h-1v-1H20z M28,21v-1h1v-1h1v1h-1v1H28z M20,7v1h-1V7H20z M18,8h1v1h-1V8z
	 M18,13v-2h1v2H18z M20,15v1v1h-1h-1v-2h1H20z M18,20h-1v1h1V20z M17,30h-2v-1v-1h1v1h1V30z M20,28h1v1h-1v1h-2v-1h2V28z M14,28h-2
	v-1h1h1V28z M11,27h-1v-1h1V27z"/>
<path style="fill-rule:evenodd;clip-rule:evenodd;fill:#AD8434;" d="M28,11v-1h1v1H28z M7,7V6h1v1H7z M8,12H7v-1h1V12z M10,4V3h1v1
	H10z M14,1h1v1h-1V1z M23,6v1h-1V6H23z M24,9V8h1v1H24z M16,6h1v1h-1V6z M19,10V9h1v1H19z M20,8V7h1v1H20z M20,16h1v1h-1V16z M24,10
	v1h-1v1h-1v-1h1v-1H24z M27,13v-1h1v1H27z M24,14v1h-1v-1H24z M20,14h1v1h-1V14z M19,3v1h-1v1h-1V4h1V3H19z M14,6h-1V5h1V6z M12,5v1
	h-1V5H12z M15,8v1h-1V8H15z M9,8v1H8V8H9V7h1v1H9z M9,9h1v1H9V9z M12,9v1h1v1h-1v-1h-1V9H12z M17,13v-1v-1h-1v-1h1v1h1v2H17z M12,12
	h-1v-1h1V12z M15,15h-1v-1h1V15z M6,9H5V8h2v1H6z M5,10v1H4v-1H5z M10,11v1H9v-1H10z M10,16H9v-1h1V16z M14,19h1h1v1h-2V19z M13,15
	h-1v-1h1V15z M18,14h1v1h-1V14z M20,13v1h-1v-1H20z M12,16h1v1h1v1h-1v-1h-1V16z M17,16v1v1h-1v-2H17z M11,19v-1h1v1H11z M18,20v1
	h-1v-1H18z"/>
<path style="fill-rule:evenodd;clip-rule:evenodd;fill:#9F792F;" d="M22,18h-1v-1h2v1H22z M19,20v-1h-2h-1v-1h1h1v-1h-1v-1v-1h1v2h1
	v1v1h2v1H19z M9,17H8v-1h1V17z M6,14H5v-1h1V14z M3,10v1H2v-1H3z M9,5v1H8V5H9z M25,10v1h-1v-1H25z M20,16v-1h1v1H20z M20,8h1v1h-1
	V8z M19,10v1h1v1v1h-1v1h-1v-1h1v-2h-1V9h1V10z M16,6v1h-1V6H16z M16,12h1v1h-1v1h-1v-1h1V12z M23,9v1h-1v1h-1v-1h1V9H23z M26,11h1
	v1h-1v1h-1v-1v-1H26z M27,13v1h-1v-1H27z M25,13v1v1h-1v-1v-1H25z M17,5h1v1h-1V5h-1V4h1V5z M19,8h-1V7h1V8z M18,3v1h-1V3H18z M15,2
	v1h1v1h-1V3h-1V2H15z M11,6v1h-1V6H11z M4,9h1h1v1H5H4V9z M11,11h-1v-1h1V11z M12,9h-1V8h1V7h1v1h-1V9z M15,10h-1V9h1V10z M11,12h1
	v2h-1V12z M15,11v1h-1v-1H15z M13,14v-1h1v1H13z M5,11h2v1H6H4v-1H5z M7,15v-2h1v-1h1v2H8v1H7z M12,15v1h-1v1v1h-1v-1v-1h1v-1H12z
	 M14,17v-1v-1h1v2H14z M14,19v-1h1v1H14z M17,29h1v1h-1V29z"/>
<path style="fill-rule:evenodd;clip-rule:evenodd;fill:#8A6928;" d="M29,11v1v1h-1v-1v-1H29z M11,19v1h-1v-1H11z M10,12h1v2h-1V12z
	 M16,4V3h1V2h1v1h-1v1H16z M22,12h-2v-1h1h1v-1h1V9h1v1h-1v1h-1V12z M27,9v1h-1v1h-1v1h-1v-1h1v-1h1V9H27z M23,7v1h-1V7H23z M27,12
	v1h-1v1h-1v-1h1v-1H27z M20,13h2v1h1v-1h1v1h-1v1v1h-1v-2h-1h-1v1h-1v-1h1V13z M18,14v1h-1v-2h1V14z M19,18v-1h1v1H19z M30,18h1v1
	h-1V18z M17,5v1h-1V5H17z M19,4v1h-1V4H19z M20,7h-1V6h1V7z M15,11v-1h1v1H15z M15,12h1v-1h1v1h-1v1h-1V12z M15,7h1h1v1h1v1h-1V8h-2
	V7h-1V6h1V7z M13,5h-1V3h1V2h1v1v1h-1V5z M10,9H9v1H8V9h1V8h1V9z M13,10h-1V9h2v1H13z M12,12h1v1v1h1v1h-1v-1h-1V12z M20,8v1h-1V8
	H20z M9,7V6h1v1H9z M4,10v1H3v-1H4z M5,10h1h1v1H5V10z M6,13v-1h1v1v2H6v-1V13z M10,16v1H9v-1H10z M15,19v-1h1v1h1v1h-1v-1H15z
	 M17,17h1v1h-1V17z M13,16h1v1h-1V16z M12,17h-1v-1h1V17z M15,29h-1v-1h1V29z M10,27H9v-1H8v-1h1v1h1V27z"/>
<path style="fill-rule:evenodd;clip-rule:evenodd;fill:#A37B9F;" d="M26,20v-1h1v-1h1v-1h1v1h-1v1h-1v1H26v1h-1v1h-1v-1h1v-1H26z
	 M23,23v-1h1v1H23v1h-1v1h-1v-1h1v-1H23z M8,21v1h1v1h1v1H9v-1H8v-1H7v-1H6v-1H5v-1h1v1h1v1H8z M2,16h1v1h1v1H3v-1H2V16z M14,26h6
	v-1h1v1h-1v1h-5h-1V26h-1v-1h-1v-1h1v1h1V26z"/>
<path style="fill-rule:evenodd;clip-rule:evenodd;fill:#987294;" d="M31,16v1h-1v-1H31z M30,17v1h-1v1h-1v-1h1v-1H30z M15,28v-1h5
	v-1h1v-1h1v-1h1v-1h1v-1h1v-1h1v-1h1v2h-1v1h-1v1h-1v1h-1v1h-1v1h-2v1h-4H15z M27,20v-1h1v1H27z M1,18v-2h1v1h1v1h1v1h1v1h1v1h1v1h1
	v1h1v1H7v-1H6v-1H5v-1H4v-1H3v-1H2v-1H1z M10,24h2v1h1v1h-2v-1H9v-1H10z M13,27v-1h1v1H13z"/>
<path style="fill-rule:evenodd;clip-rule:evenodd;fill:#8C6988;" d="M22,27v1h-1h-1v1h-2h-1h-1v-1h4v-1H22v-1h1v-1h1v-1h1v-1h1v-1h1
	v-2h1v-1h1v-1h1v-1h-1h-1v1h-1v-1h1v-1h2v-1h1v1h-1v1h1v1h-1v1h-1v1h-1v1v1h-1v2h-2v1h-1v1h-1v1H22z M27,18v1h-1v-1H27z M20,26h-6
	v-1h-1v-1h-1h-2v-1H9v-1H8v-1h1v1h1v1h3v1h1v1h6v-1h1v-1h1v-1h1v-1h1v-1h1v-1h1v1h-1v1h-1v1h-1v1h-1v1h-1v1h-1V26z M11,26h-1H9v-1H8
	H7v-1H6v-1H5v-1H4v-1H3v-1H2v-1H1v-1h1v1h1v1h1v1h1v1h1v1h1v1h2v1h2V26h2v1h-1h-1V26z M15,28h-1v-1h1V28z"/>
<path style="fill-rule:evenodd;clip-rule:evenodd;fill:#775973;" d="M3,16H2H1v-1h2V16h1v1H3V16z M7,20H6v-1H5H4v-1h2v1h1V20h1v1H7
	V20z"/>
<path style="fill-rule:evenodd;clip-rule:evenodd;fill:#5D471B;" d="M7,20v-1H6v-1H4v-1v-1H3v-1H1V9h1V8h1V7h1V6h2V5h1V4h1V3h1V2h1
	V1h2V0h8v1h1v1h1v1h2v1h1v1h1v1h1v1h1v1h1v1h1v1h1v5h-1v1h-2v1h-1v1h-1v1h-1v1h-1v1h-1v1h-1v1h-1v1h-1v1h-6v-1h-1v-1h-3v-1H9v-1H8
	v-1H7z M23,26h1v-1h1v-1h2v-2h1v-1h1v-1h1v-1h1v-1v-1v-1h1v5h-1v1h-1v1h-1v1h-1v1h-1v1h-1v1h-1v1h-1v1h-1v1h-1v1h-1v1h-6v-1h-2v-1
	h-1v-1H9v-1H7v-1H6v-1H5v-1H4v-1H3v-1H2v-1H1v-1H0v-5h1v2v1h1v1h1v1h1v1h1v1h1v1h1v1h1v1h1v1h1h1h1v1h2v1h1v1h2h1h2v-1h1v-1h1v-1h1
	V26z M18,2h-1V1h-2h-1h-1v1h-2v1h-1v1H9v1H8v1H7v1H5v1H4v1H3v1H2v1v1h1v1h2v1v1h1v1h2v1v1h1v1h1v1h1h3v1h1v1h3v-1h1v-1h2v-1h1v-1h1
	v-1h1v-1h1v-1h2v-1h1v-1h1v-1h1v-1h-1v-1h-1V9h-1V8h-1V7h-2V6h-1V5h-2V4h-1V3h-1V2H18z"/>
</g>
</svg>
